<svg xmlns="http://www.w3.org/2000/svg" id="Camada_1" data-name="Camada 1" transform="rotate(-90)" version="1.1" viewBox="0 0 166.32 180.12"><defs id="defs1"><style id="style1">.cls-1{fill:none;stroke:#000;stroke-linecap:round;stroke-linejoin:round;stroke-width:.72px}</style></defs><path d="m3.12 102.96 4.32 7.32 4.68 7.08.84 1.2 m18.48 125.64 4.08 4.92 5.76 6.24 2.28 2.16 m37.2 145.08 3.6 3.12 6.6 5.28 3.96 2.76 m58.92 161.04 2.64 1.68L69 166.8l5.76 2.76 m83.04 173.04 1.44.6 7.92 2.88 8.16 2.28 M100.56 1.2 92.4 3.6l-7.92 2.76-1.44.6 M74.76 10.56 69 13.32l-7.44 3.96-2.64 1.68 m51.36 23.88-3.96 2.76-6.6 5.16-3.6 3.12 m30.6 41.04-2.28 2.28-5.76 6.12-4.08 4.92 m12.96 61.56-.84 1.2-4.68 7.08-4.32 7.32 m2.76 78-1.32 3.96-.84 3.96L.36 90l.24 4.08.84 4.08 1.32 3.96 m101.28 179.04 5.04.6 5.16.12 5.04-.36 3.24-.48 m128.4 176.64 2.76-.96 4.68-2.16 4.44-2.52 3.96-2.76 m150.84 162.24.96-1.08 3.24-3.84 2.88-4.2 2.4-4.56.48-1.2 m164.04 138.96 1.08-4.8.6-5.04.24-5.04-.12-3 m164.64 112.2-.72-3.12-1.56-4.92-2.04-4.56-2.4-4.56 m157.92 84.96 2.4-4.44 2.04-4.68 1.56-4.8.72-3.12 m165.84 59.04.12-3-.24-5.16-.6-5.04-1.08-4.68 m160.8 32.76-.48-1.32-2.4-4.44-2.88-4.2-3.24-3.96-.96-.96 M144.24 11.88 140.28 9l-4.44-2.52-4.68-2.04-2.76-1.08 m119.76 1.2-3.24-.48-5.04-.36-5.16.12-5.04.6"/></svg>