<svg xmlns="http://www.w3.org/2000/svg" width="500" height="457"><path d="m497.277 125.805-2.445-14.078-3.973-14.082-5.191-13.47-6.723-12.855-8.25-11.937-8.86-11.02-10.386-10.406-11-9.184-11.914-8.265-12.527-6.735-13.442-5.507-14.054-4.594-14.055-2.45L360.097 0h-14.359l-14.054 1.531-14.36 3.059-13.746 3.98-13.445 5.512-12.524 7.04-4.277 4.589-5.195 4.285-5.805 2.758-6.418 1.836-6.414.61-6.414-.61-6.418-1.836-5.805-2.758-5.5-4.285-4.277-4.895-12.527-7.043-13.442-5.507-13.75-3.98-14.36-3.063L152.958 0h-14.36l-14.359 1.531-14.054 2.754-14.055 4.59-13.137 5.512-12.527 6.734-11.914 8.266-11 9.18-10.387 10.41-8.86 11.02-8.25 11.937-6.722 12.855-5.191 13.469-3.973 14.078-2.445 14.082-1.528 14.387v14.386c.305 0 1.832 14.079 1.832 14.079l7.336 25.406 9.164 24.793 10.082 24.183 11.61 23.57L53.05 290.18l14.36 22.039 15.886 21.426 16.5 20.203 18.023 19.28 18.637 18.063 20.164 17.446 21.082 15.918 21.692 14.691 22.609 13.164 10.387 3.367 11.304 1.836H255l11.305-1.836 10.386-3.367 22.914-13.164 21.692-14.691 21.082-15.918 20.164-17.446 18.637-18.062 18.023-19.281 16.5-20.203 15.887-21.426 14.055-22.04 13.136-22.956 11.305-23.57 10.387-24.184 8.859-24.793 7.64-25.406 1.528-14.079v-14.386c.305 0-1.223-14.387-1.223-14.387Zm-10.082 67.648-8.86 24.488-10.39 24.18-11.304 23.57-13.137 22.649-13.746 22.039-15.582 21.121-16.5 20.203-18.024 18.977-18.636 18.062-20.164 17.14-20.778 15.61-21.691 14.692-22.61 13.164-10.082 3.367L255 454.55h-10.695l-10.692-1.836-10.082-3.367-22.61-13.164-21.69-14.692-20.774-15.61-20.168-17.14-18.637-18.062-18.023-18.977-16.5-20.203-15.582-21.121-14.36-22.04-12.828-22.648-11.613-23.57-9.773-24.18-9.168-24.488-7.332-25.101-1.528-13.774v-14.082c-.304 0 1.223-14.387 1.223-14.387l2.445-13.773 3.969-13.773 5.195-13.16 6.414-12.86 7.946-11.629 8.86-11.02 10.081-10.101 11-9.184 11.61-7.957 12.527-6.43 13.137-5.507 13.746-4.285 13.75-2.45 14.054-1.53h14.055l13.746 1.53 14.055 3.06 13.441 3.98 13.14 5.507 12.22 7.043 4.277 4.899 5.805 4.59 6.109 3.062 6.723 1.836 6.722.61 6.72-.919 6.722-1.836 6.11-3.058 5.5-4.594 4.276-4.59 12.223-6.734 13.137-5.512 13.441-3.976 14.055-3.063 13.75-1.531h14.05l14.364 1.531 13.746 2.45 13.75 4.285 13.137 5.507 12.219 6.43 11.609 7.957 11 9.184 10.082 10.101 8.86 11.02 7.945 11.633 6.414 12.855 5.195 13.16 3.973 13.778 2.441 13.773 1.531 14.078v14.387c-.308 0-1.836 13.777-1.836 13.777l-7.636 25.098Zm0 0" style="stroke:none;fill-rule:nonzero;fill:#000;fill-opacity:1"/></svg>