<svg xmlns="http://www.w3.org/2000/svg" id="svg10" version="1.1" viewBox="100 240 320 320"><defs id="defs1"><clipPath id="starClip"/><style id="style1">.st0{fill:none;stroke:#000;stroke-linecap:round;stroke-linejoin:round;stroke-width:.72px}</style></defs><g id="g10" clip-path="url(#starClip)"/><path d="M100 240h320v320H100z m315.24 527.16 3.84 1.56 3.84 1.08 4.08.6 4.08.24 3.96-.36 4.08-.72 3.84-1.08 3.72-1.68 3.6-1.92 3.24-2.4 3-2.76 2.64-3 2.4-3.36 1.92-3.6 1.44-3.84 1.08-3.84.6-4.08.24-3.96-.36-4.08-1.68-49.56 m368.04 430.32-1.44 2.16-1.08 2.52-.6 2.64-.12 2.76 m368.04 430.32 30.6-39.12 2.64-3.12 2.16-3.36 1.92-3.6 1.44-3.84.96-3.96.6-3.96v-4.08l-.36-4.08-.72-3.96-1.32-3.84-1.68-3.72-2.04-3.48-2.52-3.24-2.76-3-3.12-2.52-3.48-2.28-3.6-1.8-3.72-1.44-3.96-.96 m322.8 311.04 1.68 2.16 2.04 1.68 2.28 1.44 2.52.96 m295.08 269.88-2.16-3.36-2.52-3.24-2.88-2.88-3.24-2.52-3.36-2.16-3.72-1.8-3.84-1.32-3.96-.96-3.96-.36h-4.08l-4.08.36-3.96.96-3.84 1.32-3.6 1.8-3.48 2.16-3.12 2.52-2.88 2.88-2.52 3.24-2.16 3.36L204 311.04 m195.36 317.28 2.52-.96 2.28-1.44 2.04-1.68 1.8-2.16 m147.72 330.96-3.96.96-3.84 1.44-3.6 1.8-3.36 2.28-3.12 2.52-2.88 3-2.4 3.24-2.16 3.48-1.68 3.72-1.2 3.84-.84 3.96-.36 4.08.12 4.08.48 3.96 1.08 3.96 1.44 3.84 1.8 3.6 2.28 3.36 2.64 3.12 30.48 39.12 m161.88 440.4-.12-2.76-.6-2.64-1.08-2.52-1.44-2.16 m147.72 330.96 47.64-13.68 m161.88 440.4-1.68 49.56-.24 4.08.12 3.96.6 4.08 1.08 3.84 1.56 3.84 1.92 3.6 2.28 3.36 2.64 3 3 2.76 3.36 2.4 3.48 1.92 3.72 1.68 3.96 1.08 3.96.72 4.08.36 4.08-.24 3.96-.6 3.96-1.08 3.72-1.56 46.68-16.92 m268.68 510.24-2.64-.72-2.64-.24-2.76.24-2.52.72 m295.08 269.88 27.72 41.16m8.52 6.24 47.76 13.68m-63.84 196.2-46.56-16.92"/></svg>