<?xml version="1.0" encoding="UTF-8"?>
<svg id="Camada_1" data-name="Camada 1" xmlns="http://www.w3.org/2000/svg" version="1.1" viewBox="0 0 189.6 211.2">
  <defs>
    <style>
      .cls-1, .cls-2 {
        stroke-miterlimit: 10;
      }

      .cls-1, .cls-2, .cls-3, .cls-4, .cls-5, .cls-6 {
        fill: black;
        stroke: #000;
        stroke-linecap: round;
      }

      .cls-2 {
        stroke-dasharray: 0 0 2 2;
      }

      .cls-3 {
        stroke-dasharray: 0 0 2 2;
      }

      .cls-3, .cls-4, .cls-5, .cls-6 {
        stroke-linejoin: round;
        stroke-width: .7px;
      }

      .cls-5 {
        stroke-dasharray: 0 0 2 2;
      }

      .cls-7 {
        opacity: .2;
      }

      .cls-6 {
        stroke-dasharray: 0 0 2.2 2.2;
      }
    </style>
  </defs>
  <g class="cls-7">
    <g>
      <line class="cls-4" x1="95.6" y1="53.3" x2="95.6" y2="52.3"/>
      <line class="cls-5" x1="95.6" y1="50.3" x2="95.6" y2="11.6"/>
      <line class="cls-4" x1="95.6" y1="10.6" x2="95.6" y2="9.6"/>
    </g>
  </g>
  <g class="cls-7">
    <g>
      <line class="cls-4" x1="95.8" y1="52.4" x2="95.8" y2="51.4"/>
      <line class="cls-3" x1="95.8" y1="49.4" x2="95.8" y2="10.7"/>
      <line class="cls-4" x1="95.8" y1="9.8" x2="95.8" y2="8.8"/>
    </g>
    <polygon class="cls-6" points="98.7 52.4 98.4 51.3 97.8 50.4 96.9 49.8 95.8 49.6 94.7 49.8 93.8 50.4 93.2 51.3 92.9 52.4 93.2 53.5 93.8 54.3 94.7 54.9 95.8 55.2 96.9 54.9 97.8 54.3 98.4 53.5 98.7 52.4"/>
  </g>
  <g>
    <path class="cls-1" d="M96.6,46.1c-.5.4-.8.6-.8.6,0,0-.3-.2-.8-.6"/>
    <path class="cls-2" d="M93.4,45c-8.9-5.9-40.6-23.1-73.5,7.8C-.1,72.8,3.5,99,3.5,99c0,0,7,38.2,34.5,68.9,24.7,26,37.4,31.4,37.4,31.4,3.4,2.3,13.3,6.9,21.7,6.4,6.8-.6,11,1.3,28.9-13.1,39.1-29.2,43.9-49.9,52.3-64.5,23.5-47.6-2.6-69.5-6.4-74.6-34.2-32.4-67.1-13.2-74.6-7.9"/>
  </g>
</svg>