<?xml version="1.0" encoding="UTF-8"?>
<svg id="Camada_1" xmlns="http://www.w3.org/2000/svg" version="1.1" xmlns:xlink="http://www.w3.org/1999/xlink" viewBox="0 0 1090.63 249.2">
  <!-- Generator: Adobe Illustrator 29.0.1, SVG Export Plug-In . SVG Version: 2.1.0 Build 192)  -->
  <defs>
    <style>
      .st0 {
        mask: url(#mask);
      }

      .st1 {
        fill: #ef7224;
      }

      .st1, .st2, .st3 {
        fill-rule: evenodd;
      }

      .st2 {
        fill: #fff;
      }

      .st4, .st5 {
        fill: none;
      }

      .st6 {
        fill: url(#Gradiente_sem_nome);
      }

      .st7 {
        clip-path: url(#clippath-1);
      }

      .st5 {
        clip-rule: evenodd;
      }

      .st3 {
        fill: #34495e;
      }

      .st8 {
        clip-path: url(#clippath);
      }
    </style>
    <clipPath id="clippath">
      <rect class="st4" x="-1" y="1" width="1090.63" height="249.2"/>
    </clipPath>
    <clipPath id="clippath-1">
      <path class="st5" d="M965.03,2c68.26,0,123.6,55.34,123.6,123.6s-55.34,123.6-123.6,123.6-123.6-55.34-123.6-123.6S896.77,2,965.03,2"/>
    </clipPath>
    <linearGradient id="Gradiente_sem_nome" data-name="Gradiente sem nome" x1="161.02" y1="-6.38" x2="160.61" y2="273.71" gradientTransform="translate(806.72 -167.69)" gradientUnits="userSpaceOnUse">
      <stop offset="0" stop-color="#fff"/>
      <stop offset="1" stop-color="#000"/>
    </linearGradient>
    <mask id="mask" x="806.72" y="-129.09" width="321.6" height="210.6" maskUnits="userSpaceOnUse">
      <rect class="st6" x="806.72" y="-129.09" width="321.6" height="210.6"/>
    </mask>
  </defs>
  <g class="st8">
    <path class="st3" d="M802.86,127.93v88.46h71.41c-7.79-7.2-14.66-15.39-20.39-24.37h-24.22v-49.95h5.96c-.62-4.64-.98-9.36-1.07-14.14h-31.7ZM829.66,70.19h17.96c4.41-8.77,9.83-16.94,16.1-24.37h-60.87v77.3h31.7c.04-1.82.11-3.62.23-5.42h-5.13v-47.51ZM698.57,127.93v88.46h24.12v-88.46h-24.12ZM752.68,123.13l-20.48-77.3h-33.62v77.3h24.12v-30.28h.49l8.06,30.28h21.43ZM783.61,123.13V45.83h-23.88v77.3h23.88ZM756.08,216.39h27.53v-88.46h-23.88v19.99h-.49l-5.3-19.99h-21.43l23.55,88.46ZM679.32,123.13V45.83h-26.8v77.3h26.8ZM652.52,216.39h26.8v-88.46h-26.8v88.46ZM596.72,123.13V45.83h-26.8v77.3h26.8ZM569.92,216.39h70.91v-24.37h-44.1v-64.09h-26.8v88.46ZM465.63,127.93v88.46h24.12v-88.46h-24.12ZM519.74,123.13l-20.48-77.3h-33.62v77.3h24.12v-30.28h.49l8.06,30.28h21.43ZM550.67,123.13V45.83h-23.88v77.3h23.88ZM523.14,216.39h27.53v-88.46h-23.88v19.99h-.49l-5.3-19.99h-21.43l23.55,88.46ZM421.78,127.93v49.23c0,12.18-5.36,16.81-13.89,16.81s-13.89-4.63-13.89-16.81v-49.23h-26.8v47.52c0,27.29,14.38,42.88,40.69,42.88s40.69-15.59,40.69-42.88v-47.52h-26.8ZM394,85.06c0-12.18,5.36-16.81,13.89-16.81s13.89,4.63,13.89,16.81v38.07h26.8v-36.37c0-27.29-14.38-42.88-40.69-42.88s-40.69,15.59-40.69,42.88v36.37h26.8v-38.07ZM302.87,127.93v88.46h26.8v-88.46h-26.8ZM274.85,70.19h28.02v52.94h26.8v-52.94h28.02v-24.37h-82.84v24.37ZM216.13,127.93v88.46h26.8v-88.46h-26.8ZM188.11,70.19h28.02v52.94h26.8v-52.94h28.02v-24.37h-82.84v24.37ZM177.63,123.13V45.83h-25.34v77.3h25.34ZM97.71,127.93v47.77c0,27.29,13.65,42.88,39.96,42.88s39.96-15.59,39.96-42.88v-47.77h-25.34v49.47c0,12.18-5.36,16.57-13.89,16.57s-13.89-4.39-13.89-16.57v-49.47h-26.8ZM97.71,45.83v77.3h26.8V45.83h-26.8ZM39.72,70.19c9.5,0,13.64,5.36,13.64,17.54v9.5c0,13.64-6.09,18.03-16.08,18.03h-10.48v-45.08h12.91ZM38.74,139.64c12.18,0,17.3,4.87,17.3,20.71v14.86c0,12.67-4.87,16.81-13.89,16.81h-15.35v-52.39h11.94ZM0,127.93v88.46h42.15c26.8,0,40.69-14.13,40.69-40.45v-13.89c0-15.98-4.4-27.75-15.42-34.12H0ZM40.45,45.83H0v77.3h66.7c9.26-6.06,13.47-16.44,13.47-31.98v-6.09c0-26.32-11.94-39.23-39.72-39.23Z"/>
    <path class="st1" d="M965.03,2c68.26,0,123.6,55.34,123.6,123.6s-55.34,123.6-123.6,123.6-123.6-55.34-123.6-123.6S896.77,2,965.03,2"/>
    <g class="st7">
      <g class="st0">
        <path class="st2" d="M967.52-129.09c88.81,0,160.8,47.14,160.8,105.3s-71.99,105.3-160.8,105.3-160.8-47.14-160.8-105.3,71.99-105.3,160.8-105.3"/>
      </g>
    </g>
    <path class="st2" d="M893.93,80.28c0,1.39,0,3.11-.01,5.14,0,2.03,0,4.32-.02,6.85-.02,2.51-.03,5.27-.06,8.24,0,2.98-.04,6.11-.04,9.39,1.85-.08,3.72-.27,5.54-.57,1.85-.3,3.58-.75,5.24-1.31,1.66-.56,3.19-1.3,4.59-2.2,1.42-.89,2.63-1.97,3.64-3.22,1.01-1.23,1.8-2.7,2.36-4.34.56-1.66.81-3.54.77-5.66-.05-2.47-.48-4.55-1.31-6.23-.83-1.68-1.93-3.03-3.34-4.03-1.41-1.01-3.05-1.73-4.93-2.13-1.86-.43-3.87-.61-5.98-.57-1.04.02-2.09.08-3.19.19-1.08.11-2.15.26-3.25.46M962.92,113.75c-.02-.99-.19-1.91-.56-2.77-.35-.85-.82-1.59-1.43-2.22-.59-.63-1.3-1.12-2.14-1.46-.82-.36-1.71-.52-2.65-.5-1.39.03-2.66.29-3.78.8-1.14.53-2.16,1.21-3.05,2.09-.89.88-1.66,1.88-2.32,3.02-.66,1.14-1.23,2.36-1.69,3.62-.46,1.29-.83,2.59-1.09,3.92-.28,1.35-.48,2.65-.59,3.93,3.06-.28,5.78-.71,8.2-1.28,2.41-.58,4.45-1.3,6.11-2.15,1.64-.87,2.89-1.88,3.75-3.05.86-1.16,1.27-2.49,1.25-3.97ZM969.5,139.54c.11.06.29.15.49.26.2.13.4.26.58.39.18.13.34.28.45.43.14.17.2.33.21.48,0,.09-.02.15-.08.24-1.18,1.72-2.45,3.2-3.81,4.46-1.36,1.26-2.78,2.32-4.26,3.17-1.48.87-2.99,1.51-4.52,1.94-1.56.43-3.07.65-4.57.68-2.58.05-4.97-.43-7.15-1.45-2.16-1.02-4.04-2.41-5.61-4.21-1.6-1.8-2.85-3.91-3.76-6.36-.93-2.45-1.42-5.09-1.47-7.91-.04-2.29.18-4.61.64-6.91.46-2.32,1.15-4.52,2.05-6.63.93-2.11,2.06-4.07,3.39-5.91,1.35-1.81,2.89-3.41,4.6-4.76,1.74-1.36,3.63-2.43,5.73-3.22,2.08-.81,4.32-1.23,6.74-1.28,1.59-.03,3.11.16,4.55.57,1.46.39,2.73.98,3.82,1.78,1.12.79,2,1.77,2.66,2.92.66,1.18,1.02,2.51,1.05,4.03.04,2.18-.63,4.11-2.03,5.77-1.4,1.66-3.36,3.08-5.85,4.28-2.49,1.19-5.45,2.18-8.85,2.95-3.38.75-7.07,1.35-11.01,1.78v.53c.06,2.75.44,5.28,1.19,7.54.75,2.28,1.76,4.2,3,5.8,1.27,1.61,2.72,2.83,4.41,3.71,1.67.87,3.46,1.3,5.38,1.26,1.94-.04,3.91-.56,5.92-1.55,2.01-1.01,4.05-2.59,6.1-4.79ZM993,79.3c-.82,4.12-1.49,8.34-2.03,12.71-.53,4.37-.98,8.68-1.32,12.92,1.01.02,1.98.05,2.95.05.95,0,1.85-.01,2.67,0,.84,0,1.59.01,2.27,0,.68-.01,1.23-.02,1.7-.03,1.96-.04,3.54-.18,4.8-.45.12.35.21.7.28.99.07.31.1.59.1.84.02.95-.37,1.57-1.13,1.87-.79.3-1.91.46-3.41.48-1.41.03-3-.03-4.76-.17-1.74-.14-3.69-.26-5.76-.37-.2,2.32-.35,4.55-.46,6.75-.13,2.18-.23,4.24-.28,6.18-.05,1.94-.1,3.75-.12,5.4-.01,1.65.02,3.08.04,4.32.04,2.31.19,4.36.47,6.16.26,1.8.7,3.31,1.34,4.58.62,1.24,1.47,2.18,2.55,2.84,1.05.64,2.4.95,4.01.91,1.17-.02,2.46-.25,3.89-.69,1.42-.42,3.04-1.12,4.85-2.06.58.56.93,1.26,1.03,2.12-1.33.91-2.66,1.73-3.99,2.48-1.35.73-2.66,1.37-3.97,1.93-1.29.53-2.56.95-3.79,1.26-1.21.31-2.37.46-3.47.49-1.43.03-2.76-.21-3.96-.72-1.2-.51-2.25-1.41-3.16-2.74-.88-1.33-1.6-3.12-2.13-5.4-.53-2.28-.83-5.14-.89-8.64-.04-1.94-.05-3.97-.03-6.04.03-2.09.07-4.19.14-6.33.07-2.12.16-4.26.3-6.4.14-2.12.29-4.24.45-6.29-1.7.05-3.26.15-4.71.29-1.45.16-2.68.36-3.71.64-.07-.13-.12-.28-.12-.46,0-.44.2-.86.64-1.29.43-.41,1.04-.77,1.83-1.12.77-.32,1.71-.61,2.8-.85,1.1-.24,2.28-.42,3.6-.53.4-4.5.84-8.77,1.34-12.76.47-4.02.98-7.6,1.47-10.76.1-.55.29-1.02.57-1.4.28-.36.63-.65,1-.88.39-.23.81-.39,1.25-.49.46-.1.9-.15,1.32-.16.73-.01,1.37.06,1.94.21.55.14,1.11.33,1.6.61ZM1016.69,137.62c.02.86.14,1.65.33,2.42.19.75.49,1.42.9,1.99.41.59.92,1.02,1.55,1.34.62.34,1.38.48,2.23.46.97-.02,1.96-.26,2.98-.74,1.03-.46,2.03-1.12,3-1.93,1-.81,1.93-1.78,2.83-2.9.88-1.14,1.67-2.35,2.4-3.68.7-1.34,1.27-2.71,1.73-4.18.46-1.46.76-2.97.88-4.49-1.61.08-3.17.19-4.75.4-1.56.18-3.05.48-4.46.84-1.4.38-2.69.85-3.9,1.44-1.18.57-2.2,1.3-3.07,2.13-.84.85-1.51,1.84-1.99,2.99-.46,1.13-.7,2.44-.67,3.91ZM1036.09,115.07c-.03-1.7-.35-3.17-.92-4.41-.6-1.22-1.34-2.24-2.26-3.02-.92-.78-1.94-1.35-3.1-1.7-1.15-.37-2.3-.55-3.43-.53-1.54.03-2.82.23-3.87.56-1.05.35-1.9.81-2.55,1.37-.63.59-1.1,1.26-1.37,2.01-.27.78-.41,1.59-.39,2.5.02,1.01.24,2.07.63,3.1.39,1.03.96,2.03,1.71,3.01l-.13.36c-1.2.64-2.43.95-3.68.97-.73.01-1.41-.08-2.06-.29-.64-.21-1.2-.53-1.67-.96-.47-.41-.83-.93-1.13-1.54-.28-.63-.42-1.31-.44-2.11-.02-1.26.26-2.45.86-3.59.6-1.14,1.39-2.16,2.36-3.11,1-.94,2.17-1.8,3.48-2.56,1.33-.75,2.68-1.4,4.11-1.93,1.4-.53,2.82-.96,4.25-1.25,1.43-.29,2.75-.45,3.98-.47,2.25-.04,4.19.21,5.81.79,1.6.56,2.91,1.42,3.95,2.55,1.01,1.13,1.77,2.5,2.26,4.14.49,1.62.77,3.47.81,5.54.03,1.41,0,2.98-.09,4.67-.08,1.7-.2,3.49-.29,5.34-.12,1.88-.21,3.79-.31,5.78-.07,1.98-.1,3.95-.06,5.91.06,3.11.68,5.41,1.88,6.95,1.18,1.54,2.69,2.28,4.56,2.25,1.67-.03,3.51-.68,5.52-1.94l.97,1.37c-1.43,1.46-2.97,2.59-4.65,3.37-1.68.78-3.46,1.19-5.33,1.25-1.41,0-2.69-.19-3.89-.65-1.2-.44-2.23-1.13-3.1-2.06-.88-.91-1.58-2.09-2.07-3.49-.49-1.42-.76-3.05-.8-4.92-.01-.57,0-1.12.01-1.68.01-.57.09-1.17.19-1.79h-.2c-.89,1.87-1.93,3.72-3.11,5.53-1.18,1.83-2.49,3.46-3.92,4.9-1.43,1.44-2.95,2.59-4.58,3.5-1.61.89-3.35,1.36-5.15,1.4-1.48.03-2.85-.21-4.07-.69-1.24-.48-2.32-1.19-3.19-2.08-.9-.89-1.58-1.93-2.09-3.16-.51-1.22-.78-2.59-.81-4.04-.04-1.89.28-3.62.94-5.2.68-1.56,1.62-2.96,2.83-4.22,1.21-1.24,2.67-2.32,4.39-3.26,1.7-.91,3.56-1.7,5.55-2.33,2.02-.63,4.14-1.12,6.41-1.45,2.24-.33,4.55-.53,6.89-.57.13-1.35.23-2.67.3-3.93.09-1.28.1-2.69.07-4.21ZM885.08,144.17c-.22,2.53-.53,7.11-1.4,12.48-.89,5.5-2.36,11.82-3.76,15.69-1.4,3.86-2.72,5.26-3.29,5.92-.56.66-.36.59,1.14.05,1.5-.54,4.3-1.54,5.97-2.43,1.67-.89,2.23-1.66,3.26-5.21,1.04-3.55,2.56-9.88,3.44-13.89.69-3.19.98-4.91,1.12-5.94,1.91.26,3.71.5,5.39.67,1.74.19,3.55.26,5.45.23,2.29-.04,4.53-.26,6.78-.66,2.22-.4,4.34-.99,6.36-1.8,1.99-.79,3.87-1.77,5.56-2.97,1.72-1.2,3.19-2.62,4.44-4.27,1.22-1.68,2.18-3.57,2.87-5.68.69-2.13.99-4.49.94-7.14-.06-3.11-.66-5.81-1.85-8.05-1.17-2.27-2.77-4.16-4.8-5.66-2.03-1.5-4.41-2.65-7.16-3.45-2.75-.78-5.73-1.26-8.98-1.44v-.29c2.43-.69,4.75-1.61,6.95-2.73,2.2-1.12,4.12-2.5,5.8-4.15,1.67-1.64,2.97-3.54,3.92-5.72.97-2.2,1.43-4.68,1.38-7.45-.04-1.92-.36-3.63-.96-5.12-.58-1.49-1.38-2.77-2.39-3.85-1.01-1.08-2.2-1.96-3.58-2.69-1.36-.72-2.87-1.29-4.48-1.7-1.62-.41-3.34-.68-5.15-.85-1.81-.16-3.64-.22-5.51-.18-2.31.04-4.69.2-7.15.45-2.46.25-4.9.56-7.34.93-2.42.38-4.79.78-7.1,1.19-2.28.44-4.41.86-6.37,1.25l.39,2.88c2.22-.37,4.02-.56,5.45-.59,1.01-.02,1.87.05,2.54.24.69.19,1.2.48,1.58.87.38.41.66.94.82,1.57.17.64.25,1.41.27,2.31.07,3.59.14,7.29.17,11.08.05,3.81.06,7.62.07,11.48-.01,3.83-.03,7.65-.09,11.44-.06,3.79-.14,7.47-.23,11.07-.08,3.59-.22,7.06-.37,10.34-.03.59-.06,1.17-.09,1.75ZM892.8,146.99c1.62.37,3.16.62,4.62.75,1.48.13,2.96.16,4.43.13,2.67-.05,5.15-.43,7.47-1.11,2.3-.71,4.31-1.78,6-3.22,1.67-1.44,2.98-3.28,3.93-5.5.93-2.22,1.36-4.88,1.3-7.96-.06-2.86-.59-5.37-1.62-7.51-1.03-2.14-2.5-3.92-4.42-5.31-1.9-1.42-4.23-2.45-7-3.1-2.77-.67-5.93-.97-9.45-.9-.68.01-1.39.03-2.11.09-.73.04-1.45.09-2.18.15-.02,1.3-.03,2.84-.07,4.61-.03,1.74-.08,3.62-.11,5.62-.05,2.01-.12,4.08-.17,6.2-.05,2.14-.12,4.23-.19,6.28-.07,2.03-.14,3.99-.2,5.84-.07,1.85-.15,3.48-.24,4.94Z"/>
  </g>
</svg>