<svg xmlns="http://www.w3.org/2000/svg" viewBox="0 0 189.6 211.2">
  <path d="
    M 95.6 53.3 L 95.6 52.3
    M 95.6 50.3 L 95.6 11.6
    M 95.6 10.6 L 95.6 9.6
    M 95.8 52.4 L 95.8 51.4
    M 95.8 49.4 L 95.8 10.7
    M 95.8 9.8 L 95.8 8.8
    M 98.7 52.4 L 98.4 51.3 L 97.8 50.4 L 96.9 49.8 L 95.8 49.6 L 94.7 49.8 L 93.8 50.4 L 93.2 51.3 L 92.9 52.4 L 93.2 53.5 L 93.8 54.3 L 94.7 54.9 L 95.8 55.2 L 96.9 54.9 L 97.8 54.3 L 98.4 53.5 L 98.7 52.4
    M 93.4 45 C 84.5 39.1 53.8 21.9 20.7 65.8
    C 0.1 72.8 3.5 99 3.5 99
    C 3.5 99 10.5 137.2 38 168.9
    C 62.7 194.9 75.4 200.3 75.4 200.3
    C 78.8 202.6 88.7 207.2 96.7 206.6
    C 103.5 206 108.7 207.9 126.7 192.7
    C 165.8 163.5 170.6 142.8 178 128.2
    C 201.4 80.6 173.4 58.7 169.6 53.6
    C 135.4 21.2 102.5 41.4 95.4 46.1
  " fill="black" stroke="black" stroke-width="0.7"/>
</svg>
