<svg xmlns="http://www.w3.org/2000/svg" id="Camada_1" version="1.1" viewBox="220.8 341.4 153.6 150.84"><defs><style>.st3{fill:none;stroke:#000;stroke-linecap:round;stroke-linejoin:round;stroke-width:.72px}</style></defs> <path id="cardenas-fill-area" fill="transparent" fill-rule="evenodd" stroke="none" d="M220.79999999999998,375.96 L221.16,375.96 L220.8095698193999,375.8775458398588 L221.2895698193999,373.8375458398588 L221.64,373.92 L221.3101833594352,373.7757052197529 L222.1501833594352,371.8557052197529 L222.48,372 L222.18705595036556,371.7907542502611 L223.38705595036558,370.1107542502611 L223.68,370.32 L223.4358191630161,370.0554707599341 L224.9958191630161,368.6154707599341 L225.24,368.88 L225.01707711549093,368.5973245897462 L254.53707711549094,345.31732458974625 L254.75999999999976,345.5999999999997 L254.5535535560292,345.3050765086132 L256.95355355602925,343.6250765086132 L257.16,343.92 L257.0164585998908,343.58985477974886 L259.7764585998908,342.3898547797489 L259.92,342.72 L259.8326871749869,342.3707486999477 L262.7126871749869,341.65074869994766 L262.8,342 L262.7712917199782,341.641146499727 L265.7712917199782,341.40114649972696 L265.8,341.76 L265.8,341.4 L277.68,341.4 L277.68,341.76 L277.71975534938696,341.4022018555175 L279.8797553493869,341.6422018555175 L279.84,342 L279.936351790963,341.65313355253323 L282.096351790963,342.25313355253326 L282,342.6 L282.1764940462677,342.28623280663516 L284.0964940462677,343.36623280663514 L283.92,343.68 L284.16496239577225,343.4161943430145 L285.84496239577226,344.9761943430145 L285.6,345.24 L285.89030579850805,345.0271090810941 L287.2081664073542,346.8241917295207 L288.7441246472538,348.83275250477396 L290.6139389029079,350.46883997847135 L292.7127377147079,351.7514392523491 L295.15494627682415,352.56550877305455 L297.6,352.79837103240465 L300.04505372317584,352.56550877305455 L302.4872622852921,351.7514392523491 L304.5860610970921,350.46883997847135 L306.45587535274626,348.83275250477396 L307.9918335926458,346.8241917295207 L309.309694201492,345.0271090810941 L309.6,345.24 L309.3550376042278,344.9761943430145 L311.03503760422774,343.4161943430145 L311.28,343.68 L311.1035059537323,343.36623280663514 L313.0235059537323,342.28623280663516 L313.2,342.6 L313.103648209037,342.25313355253326 L315.263648209037,341.65313355253323 L315.36,342 L315.32024465061306,341.6422018555175 L317.48024465061303,341.4022018555175 L317.52,341.76 L317.52,341.4 L329.4,341.4 L329.4,341.76 L329.4287082800218,341.40114649972696 L332.4287082800218,341.641146499727 L332.4,342 L332.4873128250131,341.65074869994766 L335.3673128250131,342.3707486999477 L335.28,342.72 L335.4235414001092,342.3898547797489 L338.1835414001092,343.58985477974886 L338.04,343.92 L338.2464464439708,343.6250765086132 L340.6464464439708,345.3050765086132 L340.44,345.6 L340.6629228845091,345.31732458974625 L370.1829228845091,368.5973245897462 L369.96,368.88 L370.2041808369839,368.6154707599341 L371.7641808369839,370.0554707599341 L371.52,370.32 L371.8129440496344,370.1107542502611 L373.0129440496344,371.7907542502611 L372.72,372 L373.0498166405648,371.8557052197529 L373.8898166405648,373.7757052197529 L373.56,373.92 L373.9104301806001,373.8375458398588 L374.3904301806001,375.8775458398588 L374.04,375.96 L374.40000000000003,375.96 L374.40000000000003,378.12 L374.04,378.12 L374.3945220811745,378.1825627202073 L374.0345220811745,380.2225627202073 L373.68,380.16 L374.01707850392484,380.28640443897183 L373.2970785039248,382.2064044389718 L372.96,382.08 L373.2595381059616,382.2796920706411 L372.0595381059616,384.0796920706411 L371.76,383.88 L372.04374769348067,384.1015564181972 L365.2037476934807,392.8615564181972 L364.92,392.64 L365.1845292400659,392.8841808369839 L363.7445292400659,394.4441808369839 L363.48,394.2 L363.6892457497389,394.4929440496344 L362.0092457497389,395.6929440496344 L361.8,395.4 L361.9442947802471,395.72981664056476 L360.0242947802471,396.5698166405648 L359.88,396.24 L359.95809496481473,396.59142734166625 L357.79809496481477,397.07142734166626 L357.72,396.72 L357.72,397.08000000000004 L355.68,397.08000000000004 L355.68,396.72 L355.6208163645701,397.0751018125796 L353.46081636457006,396.7151018125796 L353.52,396.36 L353.3935955610282,396.69707850392484 L351.4735955610282,395.9770785039248 L351.6,395.64 L351.4003079293589,395.9395381059616 L349.6003079293589,394.7395381059616 L349.8,394.44 L349.5751097828804,394.7211127713995 L345.4048909695161,391.38493772070797 L344.28500221829995,390.8249933451 L343.0638025355626,390.6029570391477 L341.86024102872494,390.7123717215875 L340.77324929300875,391.2558675894456 L339.8858960173907,392.14322086506365 L339.2310659720149,393.23460427402324 L339.12,394.4563299661873 L339.12,474.12 L338.76,474.12 L339.1186466117504,474.15118666189136 L338.8786466117504,476.91118666189135 L338.52,476.88 L338.8683422180628,476.9708718829729 L338.14834221806285,479.7308718829729 L337.8,479.64 L338.1308922108065,479.7818109474885 L337.0508922108065,482.30181094748855 L336.72,482.16 L337.02869745325654,482.34521847195396 L335.5886974532565,484.74521847195393 L335.28,484.56 L335.556559660655,484.7904663838792 L333.75655966065506,486.95046638387925 L333.48,486.72 L333.71046638387924,486.99655966065507 L331.5504663838792,488.796559660655 L331.32,488.52 L331.5052184719539,488.8286974532565 L329.10521847195395,490.2686974532565 L328.92,489.96 L329.06181094748854,490.2908922108065 L326.5418109474885,491.3708922108065 L326.4,491.04 L326.4908718829729,491.38834221806286 L323.7308718829729,492.10834221806283 L323.64,491.76 L323.65563740073947,492.11966021700783 L320.8956374007395,492.23966021700784 L320.88,491.88 L320.88,492.24 L274.32,492.24 L274.32,491.88 L274.3043625992605,492.23966021700784 L271.5443625992605,492.11966021700783 L271.56,491.76 L271.4691281170271,492.10834221806283 L268.7091281170271,491.38834221806286 L268.8,491.04 L268.6581890525115,491.3708922108065 L266.13818905251145,490.2908922108065 L266.28,489.96 L266.09478152804604,490.2686974532565 L263.69478152804606,488.8286974532565 L263.88,488.52 L263.6495336161208,488.796559660655 L261.4895336161208,486.99655966065507 L261.72,486.72 L261.443440339345,486.95046638387925 L259.643440339345,484.7904663838792 L259.92,484.56 L259.6113025467435,484.74521847195393 L258.1713025467435,482.34521847195396 L258.48,482.16 L258.1491077891935,482.30181094748855 L257.0691077891935,479.7818109474885 L257.4,479.64 L257.05165778193714,479.7308718829729 L256.33165778193717,476.9708718829729 L256.68,476.88 L256.3213533882496,476.91118666189135 L256.08135338824957,474.15118666189136 L256.44,474.12 L256.08,474.12 L256.08,394.4563299661873 L255.96893402798506,393.23460427402324 L255.3141039826093,392.14322086506365 L254.42675070699124,391.2558675894456 L253.33975897127505,390.7123717215875 L252.1361974644374,390.6029570391477 L250.91499778169998,390.8249933451 L249.79510903048396,391.38493772070797 L245.6248902171196,394.7211127713995 L245.4,394.44 L245.59969207064108,394.7395381059616 L243.79969207064107,395.9395381059616 L243.6,395.64 L243.72640443897183,395.9770785039248 L241.80640443897184,396.69707850392484 L241.68,396.36 L241.73918363542992,396.7151018125796 L239.57918363542993,397.0751018125796 L239.52,396.72 L239.52,397.08000000000004 L237.48,397.08000000000004 L237.48,396.72 L237.40190503518528,397.07142734166626 L235.24190503518528,396.59142734166625 L235.32,396.24 L235.1757052197529,396.5698166405648 L233.2557052197529,395.72981664056476 L233.4,395.4 L233.19075425026114,395.6929440496344 L231.51075425026113,394.4929440496344 L231.72,394.2 L231.45547075993412,394.4441808369839 L230.01547075993412,392.8841808369839 L230.28,392.64 L229.99625230651932,392.8615564181972 L223.15625230651932,384.1015564181972 L223.44,383.88 L223.14046189403837,384.0796920706411 L221.94046189403838,382.2796920706411 L222.24,382.08 L221.90292149607515,382.2064044389718 L221.18292149607515,380.28640443897183 L221.52,380.16 L221.16547791882556,380.2225627202073 L220.80547791882555,378.1825627202073 L221.16,378.12 L220.79999999999998,378.12 L220.79999999999998,375.96 Z"/> <polyline class="st3" points="256.44 394.44 256.32 393.12 255.6 391.92 254.64 390.96 253.44 390.36 252.12 390.24 250.8 390.48 249.6 391.08"/><polyline class="st3" points="230.28 392.64 231.72 394.2 233.4 395.4 235.32 396.24 237.48 396.72 239.52 396.72 241.68 396.36 243.6 395.64 245.4 394.44"/><polyline class="st3" points="225.24 368.88 223.68 370.32 222.48 372 221.64 373.92 221.16 375.96 221.16 378.12 221.52 380.16 222.24 382.08 223.44 383.88"/><polyline class="st3" points="265.8 341.76 262.8 342 259.92 342.72 257.16 343.92 254.76 345.6"/><polyline class="st3" points="286.92 347.04 285.6 345.24 283.92 343.68 282 342.6 279.84 342 277.68 341.76"/><polyline class="st3" points="286.92 347.04 288.48 349.08 290.4 350.76 292.56 352.08 295.08 352.92 297.6 353.16 300.12 352.92 302.64 352.08 304.8 350.76 306.72 349.08 308.28 347.04"/><polyline class="st3" points="317.52 341.76 315.36 342 313.2 342.6 311.28 343.68 309.6 345.24 308.28 347.04"/><polyline class="st3" points="340.44 345.6 338.04 343.92 335.28 342.72 332.4 342 329.4 341.76"/><polyline class="st3" points="371.76 383.88 372.96 382.08 373.68 380.16 374.04 378.12 374.04 375.96 373.56 373.92 372.72 372 371.52 370.32 369.96 368.88"/><polyline class="st3" points="349.8 394.44 351.6 395.64 353.52 396.36 355.68 396.72 357.72 396.72 359.88 396.24 361.8 395.4 363.48 394.2 364.92 392.64"/><polyline class="st3" points="345.6 391.08 344.4 390.48 343.08 390.24 341.76 390.36 340.56 390.96 339.6 391.92 338.88 393.12 338.76 394.44"/><polyline class="st3" points="320.88 491.88 323.64 491.76 326.4 491.04 328.92 489.96 331.32 488.52 333.48 486.72 335.28 484.56 336.72 482.16 337.8 479.64 338.52 476.88 338.76 474.12"/><polyline class="st3" points="256.44 474.12 256.68 476.88 257.4 479.64 258.48 482.16 259.92 484.56 261.72 486.72 263.88 488.52 266.28 489.96 268.8 491.04 271.56 491.76 274.32 491.88"/><path class="st3" d="M338.76,474.12v-79.68M345.6,391.08l4.2,3.36M371.76,383.88l-6.84,8.76M369.96,368.88l-29.52-23.28M329.4,341.76h-11.88M265.8,341.76h11.88M225.24,368.88l29.52-23.28M223.44,383.88l6.84,8.76M249.6,391.08l-4.2,3.36M256.44,474.12v-79.68"/><polyline class="st3" points="320.88 491.88 297.6 491.88 274.32 491.88"/></svg>