<svg xmlns="http://www.w3.org/2000/svg" xmlns:xlink="http://www.w3.org/1999/xlink" id="Camada_1" version="1.1" viewBox="217.56 335.52 168 170.64" transform="rotate(-90)"> <defs> <style> .st0, .st1 { fill: none; } .st1 { stroke: #000; stroke-linecap: round; stroke-linejoin: round; stroke-width: .72px; } .st2 { clip-path: url(#clippath); } </style> <clipPath id="clippath"> <rect class="st0" x="124.8" y="372.96" width="45.36" height="96.6"></rect> </clipPath> <clipPath id="cardenas-clip"><path d="M340.44,335.88 L342.6,336 L344.28,336.24 L346.32,336.6 L349.2,337.68 L349.92,338.04 L351.84,339.12 L353.04,340.08 L354.36,341.16 L356.28,343.2 L361.32,349.56 L372.12,363.24 L379.56,372.72 L381.72,375.96 L382.68,377.88 L383.28,379.44 L384,381.36 L384.47999999999996,383.03999999999996 L384.84,385.08 L385.08,386.88 L385.2,389.04 L385.2,452.64 L385.08,454.8 L384.84000000000003,456.59999999999997 L384.48,458.64 L384,460.32 L383.28,462.24 L382.68,463.8 L381.72,465.72 L379.56,468.96 L372.12,478.44 L361.32,492.12 L356.28,498.48 L354.36,500.52 L353.04,501.6 L351.84,502.56 L349.92,503.64 L349.2,504 L346.32,505.08 L344.28,505.44 L342.6,505.68 L340.44,505.8 L337.44,505.44 L334.44,504.6 L234.24,468.48 L231.12,466.92 L229.44,465.84 L228.24,465 L225.6,462.72 L223.8,460.68 L221.64,457.56 L220.68,455.64 L219.96,454.08000000000004 L219.24,452.04 L218.76,450.48 L218.28,448.32 L217.92,444.12 L217.92,397.56 L218.28,393.36 L218.76,391.2 L219.24,389.64000000000004 L219.96,387.6 L220.68,386.04 L221.64,384.12 L223.8,381 L225.6,378.96 L228.24,376.68 L229.44,375.84 L231.12,374.76 L232.8,373.92 L234.24,373.20000000000005 L334.44,337.08 L337.44,336.24 Z"/></clipPath> </defs> <path id="cardenas-fill-area" fill="transparent" fill-rule="evenodd" stroke="none" d="M340.44,335.88 L342.6,336 L344.28,336.24 L346.32,336.6 L349.2,337.68 L349.92,338.04 L351.84,339.12 L353.04,340.08 L354.36,341.16 L356.28,343.2 L361.32,349.56 L372.12,363.24 L379.56,372.72 L381.72,375.96 L382.68,377.88 L383.28,379.44 L384,381.36 L384.47999999999996,383.03999999999996 L384.84,385.08 L385.08,386.88 L385.2,389.04 L385.2,452.64 L385.08,454.8 L384.84000000000003,456.59999999999997 L384.48,458.64 L384,460.32 L383.28,462.24 L382.68,463.8 L381.72,465.72 L379.56,468.96 L372.12,478.44 L361.32,492.12 L356.28,498.48 L354.36,500.52 L353.04,501.6 L351.84,502.56 L349.92,503.64 L349.2,504 L346.32,505.08 L344.28,505.44 L342.6,505.68 L340.44,505.8 L337.44,505.44 L334.44,504.6 L234.24,468.48 L231.12,466.92 L229.44,465.84 L228.24,465 L225.6,462.72 L223.8,460.68 L221.64,457.56 L220.68,455.64 L219.96,454.08000000000004 L219.24,452.04 L218.76,450.48 L218.28,448.32 L217.92,444.12 L217.92,397.56 L218.28,393.36 L218.76,391.2 L219.24,389.64000000000004 L219.96,387.6 L220.68,386.04 L221.64,384.12 L223.8,381 L225.6,378.96 L228.24,376.68 L229.44,375.84 L231.12,374.76 L232.8,373.92 L234.24,373.20000000000005 L334.44,337.08 L337.44,336.24 Z" /> <line class="st1" x1="315.48" y1="470.4" x2="315.6" y2="470.4"></line> <line class="st1" x1="315.48" y1="470.4" x2="315" y2="471.6"></line> <line class="st1" x1="314.28" y1="473.16" x2="313.68" y2="475.2"></line> <line class="st1" x1="313.32" y1="476.88" x2="313.2" y2="478.92"></line> <polyline class="st1" points="313.2 480.6 313.32 482.16 313.44 482.76"></polyline> <polyline class="st1" points="313.68 484.44 313.92 485.04 314.4 486.48"></polyline> <line class="st1" x1="315" y1="488.04" x2="316.08" y2="489.84"></line> <polyline class="st1" points="317.04 491.28 318.24 492.84 318.36 492.96"></polyline> <line class="st1" x1="319.56" y1="494.04" x2="320.52" y2="494.88"></line> <line class="st1" x1="329.28" y1="501.72" x2="331.56" y2="503.28"></line> <polyline class="st1" points="333 504 334.44 504.6 335.04 504.72"></polyline> <polyline class="st1" points="336.6 505.2 337.44 505.44 338.76 505.56"></polyline> <path class="st1" d="M344.28,505.44l2.04-.36M340.44,505.8l2.16-.12"></path> <polyline class="st1" points="347.88 504.48 349.2 504 349.92 503.64"></polyline> <polyline class="st1" points="351.36 502.8 351.84 502.56 353.04 501.6"></polyline> <line class="st1" x1="354.36" y1="500.52" x2="356.28" y2="498.48"></line> <path class="st1" d="M384.48,458.64l.36-2.04M383.28,462.24l.72-1.92M381.72,465.72l.96-1.92M379.56,468.96l1.2-1.8"></path> <line class="st1" x1="385.08" y1="454.8" x2="385.2" y2="452.64"></line> <path class="st1" d="M384.84,437.64l-.36-2.04M385.2,440.76l-.12-1.44"></path> <polyline class="st1" points="383.88 433.92 383.28 432.48 383.04 432"></polyline> <polyline class="st1" points="382.2 430.56 381.84 430.08 380.88 428.76"></polyline> <line class="st1" x1="379.8" y1="427.56" x2="378.24" y2="426.12"></line> <line class="st1" x1="376.92" y1="425.04" x2="375.72" y2="424.2"></line> <line class="st1" x1="373.8" y1="420.84" x2="373.92" y2="422.04"></line> <line class="st1" x1="374.76" y1="423.48" x2="375.72" y2="424.2"></line> <line class="st1" x1="375.72" y1="417.48" x2="374.76" y2="418.2"></line> <line class="st1" x1="373.92" y1="419.64" x2="373.8" y2="420.84"></line> <path class="st1" d="M378.24,415.56l1.56-1.44M375.72,417.48l1.2-.84"></path> <polyline class="st1" points="380.88 412.92 381.84 411.6 382.2 411.12"></polyline> <polyline class="st1" points="383.04 409.68 383.28 409.2 383.88 407.76"></polyline> <line class="st1" x1="384.48" y1="406.08" x2="384.84" y2="404.04"></line> <line class="st1" x1="385.08" y1="402.36" x2="385.2" y2="400.92"></line> <path class="st1" d="M382.68,377.88l-.96-1.92M384,381.36l-.72-1.92M384.84,385.08l-.36-2.04M385.2,389.04l-.12-2.16"></path> <line class="st1" x1="380.76" y1="374.52" x2="379.56" y2="372.72"></line> <line class="st1" x1="356.28" y1="343.2" x2="354.36" y2="341.16"></line> <polyline class="st1" points="353.04 340.08 351.84 339.12 351.36 338.88"></polyline> <polyline class="st1" points="349.92 338.04 349.2 337.68 347.88 337.2"></polyline> <path class="st1" d="M342.6,336l-2.16-.12M346.32,336.6l-2.04-.36"></path> <polyline class="st1" points="338.76 336.12 337.44 336.24 336.6 336.48"></polyline> <polyline class="st1" points="335.04 336.96 334.44 337.08 333 337.68"></polyline> <line class="st1" x1="331.56" y1="338.4" x2="329.28" y2="339.96"></line> <line class="st1" x1="320.52" y1="346.8" x2="319.56" y2="347.64"></line> <polyline class="st1" points="318.36 348.72 318.24 348.84 317.04 350.4"></polyline> <line class="st1" x1="316.08" y1="351.84" x2="315" y2="353.64"></line> <polyline class="st1" points="314.4 355.2 313.92 356.64 313.68 357.24"></polyline> <polyline class="st1" points="313.44 358.92 313.32 359.52 313.2 361.08"></polyline> <line class="st1" x1="313.2" y1="362.76" x2="313.32" y2="364.8"></line> <line class="st1" x1="313.68" y1="366.48" x2="314.28" y2="368.52"></line> <line class="st1" x1="315" y1="370.08" x2="315.48" y2="371.28"></line> <path class="st1" d="M236.28,372.6l-2.04.6M240,371.64l-2.04.36M244.32,371.28l-2.64.12"></path> <polyline class="st1" points="232.8 373.92 231.12 374.76 230.88 375"></polyline> <polyline class="st1" points="229.44 375.84 228.24 376.68 227.76 377.16"></polyline> <polyline class="st1" points="226.44 378.24 225.6 378.96 225 379.8"></polyline> <polyline class="st1" points="223.8 381 223.44 381.6 222.6 382.8"></polyline> <polyline class="st1" points="221.64 384.12 221.52 384.48 220.68 386.04"></polyline> <path class="st1" d="M218.76,391.2l-.48,2.16M219.96,387.6l-.72,2.04"></path> <line class="st1" x1="218.16" y1="395.04" x2="217.92" y2="397.56"></line> <path class="st1" d="M219.24,452.04l.72,2.04M218.28,448.32l.48,2.16M217.92,444.12l.24,2.52"></path> <polyline class="st1" points="220.68 455.64 221.52 457.2 221.64 457.56"></polyline> <polyline class="st1" points="222.6 458.88 223.44 460.08 223.8 460.68"></polyline> <polyline class="st1" points="225 461.88 225.6 462.72 226.44 463.44"></polyline> <polyline class="st1" points="227.76 464.52 228.24 465 229.44 465.84"></polyline> <polyline class="st1" points="230.88 466.68 231.12 466.92 232.8 467.76"></polyline> <path class="st1" d="M237.96,469.68l2.04.36M234.24,468.48l2.04.6"></path> <polyline class="st1" points="241.68 470.28 244.32 470.4 246.48 470.4"></polyline> <path class="st1" d="M309.48,470.4h2.04M305.64,470.4h2.16M301.8,470.4h2.16M297.96,470.4h2.16M294.12,470.4h2.16M290.28,470.4h2.16M286.44,470.4h2.16M282.72,470.4h2.04M278.88,470.4h2.04M275.04,470.4h2.04M271.2,470.4h2.16M267.36,470.4h2.16M263.52,470.4h2.16M259.68,470.4h2.16M255.84,470.4h2.16M252,470.4h2.16M248.28,470.4h2.04"></path> <line class="st1" x1="313.32" y1="470.4" x2="315.48" y2="470.4"></line> <path class="st1" d="M325.68,498.96l-1.68-1.32M329.28,501.72l-2.28-1.68"></path> <line class="st1" x1="322.68" y1="496.56" x2="320.52" y2="494.88"></line> <path class="st1" d="M375.48,474l1.32-1.56M373.2,477l1.2-1.56M370.8,480l1.32-1.56M368.4,483.12l1.32-1.68M366,486.12l1.32-1.68M363.6,489.12l1.32-1.68M361.32,492.12l1.32-1.68M358.92,495.12l1.32-1.68M356.28,498.48l1.56-2.04"></path> <line class="st1" x1="377.88" y1="471" x2="379.56" y2="468.96"></line> <path class="st1" d="M385.2,445.92v-2.16M385.2,449.76v-2.16M385.2,452.64v-1.2"></path> <line class="st1" x1="385.2" y1="442.08" x2="385.2" y2="440.76"></line> <path class="st1" d="M385.2,395.76v2.16M385.2,391.92v2.16M385.2,389.04v1.2"></path> <line class="st1" x1="385.2" y1="399.6" x2="385.2" y2="400.92"></line> <path class="st1" d="M375.48,367.68l1.32,1.56M373.2,364.68l1.2,1.56M370.8,361.68l1.32,1.56M368.4,358.56l1.32,1.68M366,355.56l1.32,1.68M363.6,352.56l1.32,1.68M361.32,349.56l1.32,1.68M358.92,346.56l1.32,1.68M356.28,343.2l1.56,2.04"></path> <line class="st1" x1="377.88" y1="370.68" x2="379.56" y2="372.72"></line> <path class="st1" d="M325.68,342.72l-1.68,1.32M329.28,339.96l-2.28,1.68"></path> <line class="st1" x1="322.68" y1="345.12" x2="320.52" y2="346.8"></line> <path class="st1" d="M309.48,371.28h2.04M305.64,371.28h2.16M301.8,371.28h2.16M297.96,371.28h2.16M294.12,371.28h2.16M290.28,371.28h2.16M286.44,371.28h2.16M282.72,371.28h2.04M278.88,371.28h2.04M275.04,371.28h2.04M271.2,371.28h2.16M267.36,371.28h2.16M263.52,371.28h2.16M259.68,371.28h2.16M255.84,371.28h2.16M252,371.28h2.16M248.28,371.28h2.04M244.32,371.28h2.16"></path> <line class="st1" x1="313.32" y1="371.28" x2="315.48" y2="371.28"></line> <path class="st1" d="M217.92,415.8v2.16M217.92,411.96v2.16M217.92,408.12v2.16M217.92,404.28v2.16M217.92,400.56v2.04M217.92,397.56v1.2"></path> <line class="st1" x1="217.92" y1="419.64" x2="217.92" y2="420.84"></line> <path class="st1" d="M217.92,425.88v-2.16M217.92,429.72v-2.16M217.92,433.56v-2.16M217.92,437.4v-2.16M217.92,441.12v-2.04M217.92,444.12v-1.2"></path> <line class="st1" x1="217.92" y1="422.04" x2="217.92" y2="420.84"></line> </svg>