<svg xmlns="http://www.w3.org/2000/svg" id="Camada_1" version="1.1" viewBox="220.8 341.4 153.6 150.84"><defs><style>.st3{fill:none;stroke:#000;stroke-linecap:round;stroke-linejoin:round;stroke-width:.72px}</style></defs><polyline class="st3" points="256.44 394.44 256.32 393.12 255.6 391.92 254.64 390.96 253.44 390.36 252.12 390.24 250.8 390.48 249.6 391.08"/><polyline class="st3" points="230.28 392.64 231.72 394.2 233.4 395.4 235.32 396.24 237.48 396.72 239.52 396.72 241.68 396.36 243.6 395.64 245.4 394.44"/><polyline class="st3" points="225.24 368.88 223.68 370.32 222.48 372 221.64 373.92 221.16 375.96 221.16 378.12 221.52 380.16 222.24 382.08 223.44 383.88"/><polyline class="st3" points="265.8 341.76 262.8 342 259.92 342.72 257.16 343.92 254.76 345.6"/><polyline class="st3" points="286.92 347.04 285.6 345.24 283.92 343.68 282 342.6 279.84 342 277.68 341.76"/><polyline class="st3" points="286.92 347.04 288.48 349.08 290.4 350.76 292.56 352.08 295.08 352.92 297.6 353.16 300.12 352.92 302.64 352.08 304.8 350.76 306.72 349.08 308.28 347.04"/><polyline class="st3" points="317.52 341.76 315.36 342 313.2 342.6 311.28 343.68 309.6 345.24 308.28 347.04"/><polyline class="st3" points="340.44 345.6 338.04 343.92 335.28 342.72 332.4 342 329.4 341.76"/><polyline class="st3" points="371.76 383.88 372.96 382.08 373.68 380.16 374.04 378.12 374.04 375.96 373.56 373.92 372.72 372 371.52 370.32 369.96 368.88"/><polyline class="st3" points="349.8 394.44 351.6 395.64 353.52 396.36 355.68 396.72 357.72 396.72 359.88 396.24 361.8 395.4 363.48 394.2 364.92 392.64"/><polyline class="st3" points="345.6 391.08 344.4 390.48 343.08 390.24 341.76 390.36 340.56 390.96 339.6 391.92 338.88 393.12 338.76 394.44"/><polyline class="st3" points="320.88 491.88 323.64 491.76 326.4 491.04 328.92 489.96 331.32 488.52 333.48 486.72 335.28 484.56 336.72 482.16 337.8 479.64 338.52 476.88 338.76 474.12"/><polyline class="st3" points="256.44 474.12 256.68 476.88 257.4 479.64 258.48 482.16 259.92 484.56 261.72 486.72 263.88 488.52 266.28 489.96 268.8 491.04 271.56 491.76 274.32 491.88"/><path class="st3" d="M338.76,474.12v-79.68M345.6,391.08l4.2,3.36M371.76,383.88l-6.84,8.76M369.96,368.88l-29.52-23.28M329.4,341.76h-11.88M265.8,341.76h11.88M225.24,368.88l29.52-23.28M223.44,383.88l6.84,8.76M249.6,391.08l-4.2,3.36M256.44,474.12v-79.68"/><polyline class="st3" points="320.88 491.88 297.6 491.88 274.32 491.88"/></svg>