<svg id="Camada_1" data-name="Camada 1" xmlns="http://www.w3.org/2000/svg" viewBox="0 0 166.32 180.12" transform="rotate(-90)">
  <defs>
    <style>
      .cls-1 {
        fill: none;
        stroke: #000;
        stroke-linecap: round;
        stroke-linejoin: round;
        stroke-width: .72px;
      }
    </style>
  </defs>
  <polyline class="cls-1" points="3.12 102.96 7.44 110.28 12.12 117.36 12.96 118.56"></polyline>
  <polyline class="cls-1" points="18.48 125.64 22.56 130.56 28.32 136.8 30.6 138.96"></polyline>
  <polyline class="cls-1" points="37.2 145.08 40.8 148.2 47.4 153.48 51.36 156.24"></polyline>
  <polyline class="cls-1" points="58.92 161.04 61.56 162.72 69 166.8 74.76 169.56"></polyline>
  <polyline class="cls-1" points="83.04 173.04 84.48 173.64 92.4 176.52 100.56 178.8"></polyline>
  <polyline class="cls-1" points="100.56 1.2 92.4 3.6 84.48 6.36 83.04 6.96"></polyline>
  <polyline class="cls-1" points="74.76 10.56 69 13.32 61.56 17.28 58.92 18.96"></polyline>
  <polyline class="cls-1" points="51.36 23.88 47.4 26.64 40.8 31.8 37.2 34.92"></polyline>
  <polyline class="cls-1" points="30.6 41.04 28.32 43.32 22.56 49.44 18.48 54.36"></polyline>
  <polyline class="cls-1" points="12.96 61.56 12.12 62.76 7.44 69.84 3.12 77.16"></polyline>
  <polyline class="cls-1" points="2.76 78 1.44 81.96 .6 85.92 .36 90 .6 94.08 1.44 98.16 2.76 102.12"></polyline>
  <polyline class="cls-1" points="101.28 179.04 106.32 179.64 111.48 179.76 116.52 179.4 119.76 178.92"></polyline>
  <polyline class="cls-1" points="128.4 176.64 131.16 175.68 135.84 173.52 140.28 171 144.24 168.24"></polyline>
  <polyline class="cls-1" points="150.84 162.24 151.8 161.16 155.04 157.32 157.92 153.12 160.32 148.56 160.8 147.36"></polyline>
  <polyline class="cls-1" points="164.04 138.96 165.12 134.16 165.72 129.12 165.96 124.08 165.84 121.08"></polyline>
  <polyline class="cls-1" points="164.64 112.2 163.92 109.08 162.36 104.16 160.32 99.6 157.92 95.04"></polyline>
  <polyline class="cls-1" points="157.92 84.96 160.32 80.52 162.36 75.84 163.92 71.04 164.64 67.92"></polyline>
  <polyline class="cls-1" points="165.84 59.04 165.96 56.04 165.72 50.88 165.12 45.84 164.04 41.16"></polyline>
  <polyline class="cls-1" points="160.8 32.76 160.32 31.44 157.92 27 155.04 22.8 151.8 18.84 150.84 17.88"></polyline>
  <polyline class="cls-1" points="144.24 11.88 140.28 9 135.84 6.48 131.16 4.44 128.4 3.36"></polyline>
  <polyline class="cls-1" points="119.76 1.2 116.52 .72 111.48 .36 106.32 .48 101.28 1.08"></polyline>
</svg>