<svg xmlns="http://www.w3.org/2000/svg" xmlns:xlink="http://www.w3.org/1999/xlink" width="500px" height="457px" viewBox="0 0 500 457" version="1.1"><g id="surface1"><path style=" stroke:none;fill-rule:nonzero;fill:rgb(0%,0%,0%);fill-opacity:1;" d="M 497.277344 125.804688 L 494.832031 111.726562 L 490.859375 97.644531 L 485.667969 84.175781 L 478.945312 71.320312 L 470.695312 59.382812 L 461.835938 48.363281 L 451.449219 37.957031 L 440.449219 28.773438 L 428.535156 20.507812 L 416.007812 13.773438 L 402.566406 8.265625 L 388.511719 3.671875 L 374.457031 1.222656 L 360.097656 0 L 345.738281 0 C 345.738281 0 331.683594 1.53125 331.683594 1.53125 L 317.324219 4.589844 L 303.578125 8.570312 L 290.132812 14.082031 L 277.609375 21.121094 L 273.332031 25.710938 L 268.136719 29.996094 L 262.332031 32.753906 L 255.914062 34.589844 L 249.5 35.199219 L 243.085938 34.589844 L 236.667969 32.753906 L 230.863281 29.996094 L 225.363281 25.710938 L 221.085938 20.816406 L 208.558594 13.773438 L 195.117188 8.265625 L 181.367188 4.285156 L 167.007812 1.222656 L 152.957031 0 L 138.597656 0 C 138.597656 0 124.238281 1.53125 124.238281 1.53125 L 110.183594 4.285156 L 96.128906 8.875 L 82.992188 14.386719 L 70.464844 21.121094 L 58.550781 29.386719 L 47.550781 38.566406 L 37.164062 48.976562 L 28.304688 59.996094 L 20.054688 71.933594 L 13.332031 84.789062 L 8.140625 98.257812 L 4.167969 112.335938 L 1.722656 126.417969 L 0.195312 140.804688 L 0.195312 155.191406 C 0.5 155.191406 2.027344 169.269531 2.027344 169.269531 L 9.363281 194.675781 L 18.527344 219.46875 L 28.609375 243.652344 L 40.21875 267.222656 L 53.050781 290.179688 L 67.410156 312.21875 L 83.296875 333.644531 L 99.796875 353.847656 L 117.820312 373.128906 L 136.457031 391.191406 L 156.621094 408.636719 L 177.703125 424.554688 L 199.394531 439.246094 L 222.003906 452.410156 L 232.390625 455.777344 L 243.695312 457.613281 L 255 457.613281 C 255 457.613281 266.304688 455.777344 266.304688 455.777344 L 276.691406 452.410156 L 299.605469 439.246094 L 321.296875 424.554688 L 342.378906 408.636719 L 362.542969 391.191406 L 381.179688 373.128906 L 399.203125 353.847656 L 415.703125 333.644531 L 431.589844 312.21875 L 445.644531 290.179688 L 458.78125 267.222656 L 470.085938 243.652344 L 480.472656 219.46875 L 489.332031 194.675781 L 496.972656 169.269531 L 498.5 155.191406 L 498.5 140.804688 C 498.804688 140.804688 497.277344 126.417969 497.277344 126.417969 Z M 487.195312 193.453125 L 478.335938 217.941406 L 467.945312 242.121094 L 456.640625 265.691406 L 443.503906 288.339844 L 429.757812 310.378906 L 414.175781 331.5 L 397.675781 351.703125 L 379.652344 370.679688 L 361.015625 388.742188 L 340.851562 405.882812 L 320.074219 421.492188 L 298.382812 436.183594 L 275.773438 449.347656 L 265.691406 452.714844 L 255 454.550781 L 244.304688 454.550781 C 244.304688 454.550781 233.613281 452.714844 233.613281 452.714844 L 223.53125 449.347656 L 200.921875 436.183594 L 179.230469 421.492188 L 158.457031 405.882812 L 138.289062 388.742188 L 119.652344 370.679688 L 101.628906 351.703125 L 85.128906 331.5 L 69.546875 310.378906 L 55.1875 288.339844 L 42.359375 265.691406 L 30.746094 242.121094 L 20.972656 217.941406 L 11.804688 193.453125 L 4.472656 168.351562 L 2.945312 154.578125 L 2.945312 140.496094 C 2.640625 140.496094 4.167969 126.109375 4.167969 126.109375 L 6.613281 112.335938 L 10.582031 98.5625 L 15.777344 85.402344 L 22.191406 72.542969 L 30.136719 60.914062 L 38.996094 49.894531 L 49.078125 39.792969 L 60.078125 30.609375 L 71.6875 22.652344 L 84.214844 16.222656 L 97.351562 10.714844 L 111.097656 6.429688 L 124.847656 3.980469 L 138.902344 2.449219 L 152.957031 2.449219 C 152.957031 2.449219 166.703125 3.980469 166.703125 3.980469 L 180.757812 7.039062 L 194.199219 11.019531 L 207.339844 16.527344 L 219.558594 23.570312 L 223.835938 28.46875 L 229.640625 33.058594 L 235.75 36.121094 L 242.472656 37.957031 L 249.195312 38.566406 L 255.914062 37.648438 L 262.636719 35.8125 L 268.746094 32.753906 L 274.246094 28.160156 L 278.523438 23.570312 L 290.746094 16.835938 L 303.882812 11.324219 L 317.324219 7.347656 L 331.378906 4.285156 L 345.128906 2.753906 L 359.179688 2.753906 C 359.179688 2.753906 373.542969 4.285156 373.542969 4.285156 L 387.289062 6.734375 L 401.039062 11.019531 L 414.175781 16.527344 L 426.394531 22.957031 L 438.003906 30.914062 L 449.003906 40.097656 L 459.085938 50.199219 L 467.945312 61.21875 L 475.890625 72.851562 L 482.304688 85.707031 L 487.5 98.867188 L 491.472656 112.644531 L 493.914062 126.417969 L 495.445312 140.496094 L 495.445312 154.882812 C 495.136719 154.882812 493.609375 168.660156 493.609375 168.660156 L 485.972656 193.757812 Z M 487.195312 193.453125 "/><path style=" stroke:none;fill-rule:nonzero;fill:rgb(0%,0%,0%);fill-opacity:1;" d="M 279.441406 213.347656 L 276.996094 206.613281 L 273.636719 200.796875 L 268.746094 195.902344 L 262.636719 192.226562 L 256.222656 190.085938 L 249.5 189.472656 L 242.777344 190.390625 L 236.363281 192.839844 L 230.253906 196.820312 L 225.363281 201.714844 L 221.699219 207.226562 L 219.558594 213.960938 L 218.949219 220.695312 L 219.863281 227.429688 L 222.308594 233.855469 L 225.976562 239.671875 L 230.863281 244.265625 L 236.972656 247.9375 L 243.390625 250.078125 L 250.109375 250.691406 L 256.832031 249.773438 L 263.25 247.324219 L 269.359375 243.652344 L 274.246094 239.367188 L 277.609375 233.246094 L 279.746094 226.816406 L 280.359375 220.082031 Z M 277.300781 226.511719 L 275.164062 232.632812 L 271.804688 238.449219 L 267.21875 242.734375 L 261.722656 246.40625 L 255.609375 248.550781 L 249.195312 249.160156 L 243.085938 248.550781 L 236.972656 246.40625 L 231.167969 242.734375 L 226.585938 238.449219 L 223.226562 232.9375 L 221.085938 226.816406 L 220.476562 220.386719 L 221.085938 213.960938 L 223.226562 207.53125 L 226.585938 202.328125 L 231.167969 197.738281 L 236.667969 194.0625 L 242.777344 191.921875 L 249.195312 191.308594 L 255.609375 191.921875 L 261.722656 194.0625 L 267.527344 197.429688 L 272.109375 202.023438 L 275.164062 207.226562 L 277.300781 213.65625 L 277.914062 220.082031 Z M 277.300781 226.511719 "/></g></svg>