<svg xmlns="http://www.w3.org/2000/svg" viewBox="100 240 320 320">
  <defs>
    <style>
      .st0 {
        fill: none;
        stroke: #000;
        stroke-linecap: round;
        stroke-linejoin: round;
        stroke-width: .72px;
      }
    </style>
    <clipPath id="starClip">
      <polygon points="100,240 420,240 420,560 100,560" />
    </clipPath>
  </defs>

  <g clip-path="url(#starClip)">
    <polyline class="st0" points="315.24 527.16 319.08 528.72 322.92 529.8 327 530.4 331.08 530.64 335.04 530.28 339.12 529.56 342.96 528.48 346.68 526.8 350.28 524.88 353.52 522.48 356.52 519.72 359.16 516.72 361.56 513.36 363.48 509.76 364.92 505.92 366 502.08 366.6 498 366.84 494.04 366.48 489.96 364.8 440.4" />
    <polyline class="st0" points="368.04 430.32 366.6 432.48 365.52 435 364.92 437.64 364.8 440.4" />
    <polyline class="st0" points="368.04 430.32 398.64 391.2 401.28 388.08 403.44 384.72 405.36 381.12 406.8 377.28 407.76 373.32 408.36 369.36 408.36 365.28 408 361.2 407.28 357.24 405.96 353.4 404.28 349.68 402.24 346.2 399.72 342.96 396.96 339.96 393.84 337.44 390.36 335.16 386.76 333.36 383.04 331.92 379.08 330.96" />
    <polyline class="st0" points="322.8 311.04 324.48 313.2 326.52 314.88 328.8 316.32 331.32 317.28" />
    <polyline class="st0" points="295.08 269.88 292.92 266.52 290.4 263.28 287.52 260.4 284.28 257.88 280.92 255.72 277.2 253.92 273.36 252.6 269.4 251.64 265.44 251.28 261.36 251.28 257.28 251.64 253.32 252.6 249.48 253.92 245.88 255.72 242.4 257.88 239.28 260.4 236.4 263.28 233.88 266.52 231.72 269.88 204 311.04" />
    <polyline class="st0" points="195.36 317.28 197.88 316.32 200.16 314.88 202.2 313.2 204 311.04" />
    <polyline class="st0" points="147.72 330.96 143.76 331.92 139.92 333.36 136.32 335.16 132.96 337.44 129.84 339.96 126.96 342.96 124.56 346.2 122.4 349.68 120.72 353.4 119.52 357.24 118.68 361.2 118.32 365.28 118.44 369.36 118.92 373.32 120 377.28 121.44 381.12 123.24 384.72 125.52 388.08 128.16 391.2 158.64 430.32" />
    <polyline class="st0" points="161.88 440.4 161.76 437.64 161.16 435 160.08 432.48 158.64 430.32" />
    <line class="st0" x1="147.72" y1="330.96" x2="195.36" y2="317.28" />
    <polyline class="st0" points="161.88 440.4 160.2 489.96 159.96 494.04 160.08 498 160.68 502.08 161.76 505.92 163.32 509.76 165.24 513.36 167.52 516.72 170.16 519.72 173.16 522.48 176.52 524.88 180 526.8 183.72 528.48 187.68 529.56 191.64 530.28 195.72 530.64 199.8 530.4 203.76 529.8 207.72 528.72 211.44 527.16 258.12 510.24" />
    <polyline class="st0" points="268.68 510.24 266.04 509.52 263.4 509.28 260.64 509.52 258.12 510.24" />
    <path class="st0" d="M295.08,269.88l27.72,41.16M331.32,317.28l47.76,13.68M315.24,527.16l-46.56-16.92" />
  </g>
</svg>
